<svg xmlns="http://www.w3.org/2000/svg" xmlns:xlink="http://www.w3.org/1999/xlink" width="1080" zoomAndPan="magnify" viewBox="0 0 810 809.999993" height="1080" preserveAspectRatio="xMidYMid meet" version="1.0"><defs><g/><clipPath id="8f930d86cf"><path d="M 591 658 L 810 658 L 810 702.75 L 591 702.75 Z M 591 658 " clip-rule="nonzero"/></clipPath></defs><path fill="#bcbec0" d="M 665.46875 601.933594 C 669.660156 601.933594 673.101562 599.011719 674 595.121094 L 809.605469 595.121094 L 809.605469 591.230469 L 674 591.230469 C 673.101562 587.335938 669.660156 584.417969 665.46875 584.417969 C 660.679688 584.417969 656.714844 588.308594 656.714844 593.175781 C 656.714844 597.964844 660.605469 601.933594 665.46875 601.933594 Z M 665.46875 601.933594 " fill-opacity="1" fill-rule="nonzero"/><path fill="#ffffff" d="M 91.847656 601.855469 C 96.035156 601.855469 99.480469 598.9375 100.378906 595.046875 L 411.175781 595.046875 L 444.699219 561.515625 L 809.605469 561.515625 L 809.605469 557.621094 L 443.128906 557.621094 L 409.601562 591.152344 L 100.378906 591.152344 C 99.480469 587.261719 96.035156 584.34375 91.847656 584.34375 C 87.054688 584.34375 83.089844 588.234375 83.089844 593.101562 C 83.089844 597.964844 86.980469 601.855469 91.847656 601.855469 Z M 91.847656 601.855469 " fill-opacity="1" fill-rule="nonzero"/><path fill="#d1d3d4" d="M 227.375 501.261719 C 231.566406 501.261719 235.007812 498.34375 235.90625 494.453125 L 409.527344 494.453125 L 443.054688 527.984375 L 809.53125 527.984375 L 809.53125 524.089844 L 444.699219 524.089844 L 411.175781 490.558594 L 235.90625 490.558594 C 235.007812 486.667969 231.566406 483.75 227.375 483.75 C 222.585938 483.75 218.621094 487.640625 218.621094 492.507812 C 218.621094 497.296875 222.585938 501.261719 227.375 501.261719 Z M 227.375 501.261719 " fill-opacity="1" fill-rule="nonzero"/><path fill="#e6e7e8" d="M 632.988281 501.261719 C 637.179688 501.261719 640.625 498.34375 641.519531 494.453125 L 809.605469 494.453125 L 809.605469 490.558594 L 641.445312 490.558594 C 640.546875 486.667969 637.105469 483.75 632.914062 483.75 C 628.125 483.75 624.160156 487.640625 624.160156 492.507812 C 624.234375 497.296875 628.125 501.261719 632.988281 501.261719 Z M 632.988281 501.261719 " fill-opacity="1" fill-rule="nonzero"/><path fill="#ffffff" d="M 699.21875 467.65625 C 703.410156 467.65625 706.855469 464.738281 707.75 460.847656 L 809.605469 460.847656 L 809.605469 456.953125 L 707.75 456.953125 C 706.855469 453.0625 703.410156 450.144531 699.21875 450.144531 C 694.429688 450.144531 690.464844 454.035156 690.464844 458.898438 C 690.464844 463.765625 694.355469 467.65625 699.21875 467.65625 Z M 699.21875 467.65625 " fill-opacity="1" fill-rule="nonzero"/><path fill="#d1d3d4" d="M 632.988281 434.125 C 637.179688 434.125 640.625 431.207031 641.519531 427.316406 L 809.605469 427.316406 L 809.605469 423.421875 L 641.445312 423.421875 C 640.546875 419.53125 637.105469 416.613281 632.914062 416.613281 C 628.125 416.613281 624.160156 420.503906 624.160156 425.367188 C 624.160156 430.234375 628.125 434.125 632.988281 434.125 Z M 632.988281 434.125 " fill-opacity="1" fill-rule="nonzero"/><path fill="#e6e7e8" d="M 370.988281 364.816406 C 373.90625 367.738281 378.46875 368.1875 381.839844 366.015625 L 443.128906 427.316406 L 593.328125 427.316406 L 627.300781 393.785156 L 809.679688 393.785156 L 809.679688 389.890625 L 625.65625 389.890625 L 591.679688 423.421875 L 444.699219 423.421875 L 384.53125 363.246094 C 386.628906 359.878906 386.253906 355.386719 383.335938 352.394531 C 379.890625 348.949219 374.355469 348.949219 370.988281 352.394531 C 367.617188 355.835938 367.542969 361.375 370.988281 364.816406 Z M 370.988281 364.816406 " fill-opacity="1" fill-rule="nonzero"/><path fill="#d1d3d4" d="M 699.21875 366.988281 C 703.410156 366.988281 706.855469 364.070312 707.75 360.175781 L 809.605469 360.175781 L 809.605469 356.285156 L 707.75 356.285156 C 706.855469 352.394531 703.410156 349.472656 699.21875 349.472656 C 694.429688 349.472656 690.464844 353.367188 690.464844 358.230469 C 690.464844 363.097656 694.355469 366.988281 699.21875 366.988281 Z M 699.21875 366.988281 " fill-opacity="1" fill-rule="nonzero"/><path fill="#d1d3d4" d="M 379.816406 333.457031 C 384.007812 333.457031 387.449219 330.539062 388.347656 326.644531 L 411.175781 326.644531 L 444.699219 293.113281 L 566.460938 293.113281 L 599.910156 326.570312 L 809.605469 326.570312 L 809.605469 322.753906 L 601.484375 322.753906 L 568.03125 289.296875 L 443.128906 289.296875 L 409.601562 322.828125 L 388.347656 322.828125 C 387.449219 318.9375 384.007812 316.019531 379.816406 316.019531 C 375.027344 316.019531 371.0625 319.910156 371.0625 324.773438 C 371.0625 329.640625 374.953125 333.457031 379.816406 333.457031 Z M 379.816406 333.457031 " fill-opacity="1" fill-rule="nonzero"/><path fill="#f1f2f2" d="M 343.972656 299.777344 C 348.160156 299.777344 351.605469 296.855469 352.503906 292.964844 L 411.175781 292.964844 L 444.699219 259.433594 L 598.789062 259.433594 L 632.390625 293.039062 L 809.53125 293.039062 L 809.53125 289.148438 L 634.039062 289.148438 L 600.4375 255.542969 L 443.128906 255.542969 L 409.601562 289.074219 L 352.503906 289.074219 C 351.605469 285.179688 348.160156 282.261719 343.972656 282.261719 C 339.179688 282.261719 335.214844 286.15625 335.214844 291.019531 C 335.214844 295.882812 339.105469 299.777344 343.972656 299.777344 Z M 343.972656 299.777344 " fill-opacity="1" fill-rule="nonzero"/><path fill="#d1d3d4" d="M 567.359375 232.789062 C 571.550781 232.789062 574.992188 229.871094 575.890625 225.976562 L 631.566406 225.976562 L 665.09375 259.507812 L 809.605469 259.507812 L 809.605469 255.617188 L 666.667969 255.617188 L 633.140625 222.085938 L 575.890625 222.085938 C 574.992188 218.195312 571.550781 215.273438 567.359375 215.273438 C 562.570312 215.273438 558.601562 219.167969 558.601562 224.03125 C 558.601562 228.898438 562.570312 232.789062 567.359375 232.789062 Z M 567.359375 232.789062 " fill-opacity="1" fill-rule="nonzero"/><path fill="#bcbec0" d="M 502.550781 166.101562 C 506.742188 166.101562 510.183594 163.179688 511.082031 159.289062 L 631.71875 159.289062 L 698.398438 225.976562 L 809.605469 225.976562 L 809.605469 222.085938 L 700.042969 222.085938 L 633.363281 155.398438 L 511.082031 155.398438 C 510.183594 151.503906 506.742188 148.585938 502.550781 148.585938 C 497.761719 148.585938 493.792969 152.476562 493.792969 157.34375 C 493.792969 162.132812 497.761719 166.101562 502.550781 166.101562 Z M 502.550781 166.101562 " fill-opacity="1" fill-rule="nonzero"/><path fill="#ffffff" d="M 410.351562 131.894531 C 414.542969 131.894531 417.984375 128.976562 418.882812 125.085938 L 631.117188 125.085938 L 698.398438 192.371094 L 809.605469 192.371094 L 809.605469 188.480469 L 700.042969 188.480469 L 632.691406 121.191406 L 418.882812 121.191406 C 417.984375 117.300781 414.542969 114.382812 410.351562 114.382812 C 405.5625 114.382812 401.59375 118.273438 401.59375 123.136719 C 401.59375 128.003906 405.5625 131.894531 410.351562 131.894531 Z M 410.351562 131.894531 " fill-opacity="1" fill-rule="nonzero"/><path fill="#a7a9ac" d="M 659.40625 129.425781 C 662.324219 132.34375 666.890625 132.792969 670.257812 130.625 L 698.472656 158.839844 L 809.679688 158.839844 L 809.679688 154.949219 L 700.042969 154.949219 L 672.953125 127.855469 C 675.046875 124.484375 674.671875 119.996094 671.753906 117 C 668.3125 113.558594 662.773438 113.558594 659.40625 117 C 656.039062 120.445312 655.964844 125.984375 659.40625 129.425781 Z M 659.40625 129.425781 " fill-opacity="1" fill-rule="nonzero"/><path fill="#e6e7e8" d="M 535.925781 98.515625 C 540.117188 98.515625 543.558594 95.59375 544.457031 91.703125 L 664.796875 91.703125 L 698.398438 125.308594 L 809.605469 125.308594 L 809.605469 121.417969 L 700.042969 121.417969 L 666.441406 87.8125 L 544.457031 87.8125 C 543.558594 83.917969 540.117188 81 535.925781 81 C 531.136719 81 527.171875 84.890625 527.171875 89.757812 C 527.171875 94.621094 531.136719 98.515625 535.925781 98.515625 Z M 535.925781 98.515625 " fill-opacity="1" fill-rule="nonzero"/><g clip-path="url(#8f930d86cf)"><path fill="#e6e7e8" d="M 600.660156 702.75 C 604.851562 702.75 608.292969 699.832031 609.191406 695.9375 L 666.21875 695.9375 L 699.96875 662.183594 L 809.53125 662.183594 L 809.53125 658.292969 L 698.398438 658.292969 L 664.644531 692.046875 L 609.191406 692.046875 C 608.292969 688.15625 604.851562 685.234375 600.660156 685.234375 C 595.871094 685.234375 591.90625 689.128906 591.90625 693.992188 C 591.980469 698.859375 595.871094 702.75 600.660156 702.75 Z M 600.660156 702.75 " fill-opacity="1" fill-rule="nonzero"/></g><path fill="#d1d3d4" d="M 739.558594 98.515625 C 743.746094 98.515625 747.191406 95.59375 748.089844 91.703125 L 809.605469 91.703125 L 809.605469 87.886719 L 748.089844 87.886719 C 747.191406 83.992188 743.75 81.074219 739.558594 81.074219 C 734.769531 81.074219 730.800781 84.96875 730.800781 89.832031 C 730.800781 94.695312 734.691406 98.515625 739.558594 98.515625 Z M 739.558594 98.515625 " fill-opacity="1" fill-rule="nonzero"/><path fill="#e6e7e8" d="M 443.878906 668.84375 C 448.070312 668.84375 451.511719 665.925781 452.410156 662.035156 L 503.371094 662.035156 L 536.75 628.652344 L 809.605469 628.652344 L 809.605469 624.761719 L 535.101562 624.761719 L 501.726562 658.140625 L 452.410156 658.140625 C 451.511719 654.25 448.070312 651.332031 443.878906 651.332031 C 439.089844 651.332031 435.121094 655.222656 435.121094 660.085938 C 435.121094 664.953125 439.089844 668.84375 443.878906 668.84375 Z M 443.878906 668.84375 " fill-opacity="1" fill-rule="nonzero"/><path fill="#e6e7e8" d="M 656.9375 662.183594 C 657.835938 666.074219 661.277344 668.996094 665.46875 668.996094 C 670.257812 668.996094 674.226562 665.101562 674.226562 660.238281 C 674.226562 655.445312 670.332031 651.480469 665.46875 651.480469 C 661.277344 651.480469 657.835938 654.398438 656.9375 658.292969 L 544.457031 658.292969 C 543.558594 654.398438 540.117188 651.480469 535.925781 651.480469 C 531.136719 651.480469 527.171875 655.371094 527.171875 660.238281 C 527.171875 665.027344 531.0625 668.996094 535.925781 668.996094 C 540.117188 668.996094 543.558594 666.074219 544.457031 662.183594 Z M 656.9375 662.183594 " fill-opacity="1" fill-rule="nonzero"/><path fill="#ffffff" d="M 536.75 595.121094 L 592.203125 595.121094 C 593.101562 599.011719 596.542969 601.933594 600.734375 601.933594 C 605.523438 601.933594 609.492188 598.039062 609.492188 593.175781 C 609.492188 588.382812 605.597656 584.417969 600.734375 584.417969 C 596.542969 584.417969 593.101562 587.335938 592.203125 591.230469 L 535.179688 591.230469 L 501.726562 624.683594 L 377.574219 624.683594 L 342.550781 659.714844 L 235.90625 659.714844 C 235.007812 655.820312 231.566406 652.902344 227.375 652.902344 C 222.585938 652.902344 218.621094 656.792969 218.621094 661.660156 C 218.621094 666.449219 222.511719 670.417969 227.375 670.417969 C 231.566406 670.417969 235.007812 667.496094 235.90625 663.605469 L 344.195312 663.605469 L 379.21875 628.578125 L 503.296875 628.578125 Z M 536.75 595.121094 " fill-opacity="1" fill-rule="nonzero"/><path fill="#f1f2f2" d="M 334.839844 628.652344 C 335.738281 632.542969 339.179688 635.464844 343.371094 635.464844 C 348.160156 635.464844 352.128906 631.570312 352.128906 626.707031 C 352.128906 621.914062 348.238281 617.949219 343.371094 617.949219 C 339.179688 617.949219 335.738281 620.867188 334.839844 624.761719 L 192.277344 624.761719 C 191.378906 620.867188 187.9375 617.949219 183.746094 617.949219 C 178.957031 617.949219 174.988281 621.839844 174.988281 626.707031 C 174.988281 631.496094 178.882812 635.464844 183.746094 635.464844 C 187.9375 635.464844 191.378906 632.542969 192.277344 628.652344 Z M 334.839844 628.652344 " fill-opacity="1" fill-rule="nonzero"/><path fill="#bcbec0" d="M 228.945312 559.644531 C 228.945312 564.433594 232.914062 568.402344 237.703125 568.402344 C 241.894531 568.402344 245.335938 565.480469 246.234375 561.589844 L 311.566406 561.441406 L 344.195312 528.058594 L 401.820312 528.058594 C 402.71875 531.949219 406.160156 534.871094 410.351562 534.871094 C 415.140625 534.871094 419.105469 530.976562 419.105469 526.113281 C 419.105469 521.320312 415.214844 517.355469 410.351562 517.355469 C 406.160156 517.355469 402.71875 520.273438 401.820312 524.167969 L 342.546875 524.167969 L 309.921875 557.546875 L 246.160156 557.699219 C 245.261719 553.804688 241.820312 550.886719 237.628906 550.886719 C 232.839844 550.886719 228.945312 554.777344 228.945312 559.644531 Z M 228.945312 559.644531 " fill-opacity="1" fill-rule="nonzero"/><path fill="#a7a9ac" d="M 227.375 517.28125 C 223.183594 517.28125 219.742188 520.199219 218.84375 524.089844 L 146.101562 524.089844 C 145.203125 520.199219 141.761719 517.28125 137.570312 517.28125 C 132.78125 517.28125 128.816406 521.171875 128.816406 526.039062 C 128.816406 530.828125 132.707031 534.792969 137.570312 534.792969 C 141.761719 534.792969 145.203125 531.875 146.101562 527.984375 L 218.84375 527.984375 C 219.742188 531.875 223.183594 534.792969 227.375 534.792969 C 232.164062 534.792969 236.132812 530.902344 236.132812 526.039062 C 236.132812 521.246094 232.238281 517.28125 227.375 517.28125 Z M 227.375 517.28125 " fill-opacity="1" fill-rule="nonzero"/><path fill="#d1d3d4" d="M 268.085938 323.277344 L 165.1875 323.277344 C 164.289062 319.386719 160.84375 316.46875 156.65625 316.46875 C 151.863281 316.46875 147.898438 320.359375 147.898438 325.222656 C 147.898438 330.089844 151.789062 333.980469 156.65625 333.980469 C 160.84375 333.980469 164.289062 331.0625 165.1875 327.171875 L 268.160156 327.171875 C 269.058594 331.0625 272.5 333.980469 276.691406 333.980469 C 281.480469 333.980469 285.449219 330.089844 285.449219 325.222656 C 285.449219 320.359375 281.558594 316.46875 276.691406 316.46875 C 272.5 316.46875 268.984375 319.386719 268.085938 323.277344 Z M 268.085938 323.277344 " fill-opacity="1" fill-rule="nonzero"/><path fill="#e6e7e8" d="M 315.007812 366.316406 L 442.53125 493.851562 L 443.128906 494.453125 L 592.203125 494.453125 C 593.101562 498.34375 596.542969 501.261719 600.734375 501.261719 C 605.523438 501.261719 609.492188 497.371094 609.492188 492.507812 C 609.492188 487.714844 605.601562 483.75 600.734375 483.75 C 596.542969 483.75 593.101562 486.667969 592.203125 490.558594 L 444.699219 490.558594 L 317.777344 363.621094 C 319.875 360.253906 319.5 355.761719 316.582031 352.769531 C 313.136719 349.324219 307.601562 349.324219 304.234375 352.769531 C 300.789062 356.210938 300.789062 361.75 304.234375 365.117188 C 307.152344 368.109375 311.640625 368.484375 315.007812 366.316406 Z M 315.007812 366.316406 " fill-opacity="1" fill-rule="nonzero"/><path fill="#f1f2f2" d="M 91.546875 427.539062 L 342.625 427.539062 L 369.339844 454.257812 C 367.246094 457.628906 367.617188 462.117188 370.539062 465.113281 C 373.980469 468.554688 379.519531 468.554688 382.886719 465.113281 C 386.328125 461.667969 386.328125 456.128906 382.886719 452.761719 C 379.96875 449.84375 375.402344 449.394531 372.035156 451.566406 L 344.195312 423.722656 L 91.546875 423.722656 C 90.648438 419.832031 87.207031 416.910156 83.015625 416.910156 C 78.226562 416.910156 74.257812 420.804688 74.257812 425.667969 C 74.257812 430.457031 78.152344 434.425781 83.015625 434.425781 C 87.207031 434.351562 90.648438 431.429688 91.546875 427.539062 Z M 91.546875 427.539062 " fill-opacity="1" fill-rule="nonzero"/><path fill="#e6e7e8" d="M 334.839844 457.027344 L 235.90625 457.027344 C 235.007812 453.136719 231.566406 450.21875 227.375 450.21875 C 222.585938 450.21875 218.621094 454.109375 218.621094 458.976562 C 218.621094 463.839844 222.511719 467.730469 227.375 467.730469 C 231.566406 467.730469 235.007812 464.8125 235.90625 460.921875 L 334.839844 460.921875 C 335.738281 464.8125 339.179688 467.730469 343.371094 467.730469 C 348.160156 467.730469 352.128906 463.839844 352.128906 458.976562 C 352.128906 454.109375 348.238281 450.21875 343.371094 450.21875 C 339.257812 450.21875 335.738281 453.136719 334.839844 457.027344 Z M 334.839844 457.027344 " fill-opacity="1" fill-rule="nonzero"/><path fill="#e6e7e8" d="M 511.082031 460.847656 L 656.9375 460.847656 C 657.835938 464.738281 661.277344 467.65625 665.46875 467.65625 C 670.257812 467.65625 674.226562 463.765625 674.226562 458.898438 C 674.226562 454.109375 670.332031 450.144531 665.46875 450.144531 C 661.277344 450.144531 657.835938 453.0625 656.9375 456.953125 L 511.082031 456.953125 C 510.183594 453.0625 506.742188 450.144531 502.550781 450.144531 C 497.761719 450.144531 493.792969 454.035156 493.792969 458.898438 C 493.792969 463.691406 497.683594 467.65625 502.550781 467.65625 C 506.742188 467.65625 510.183594 464.738281 511.082031 460.847656 Z M 511.082031 460.847656 " fill-opacity="1" fill-rule="nonzero"/><path fill="#e6e7e8" d="M 437.742188 465.113281 C 441.183594 468.554688 446.722656 468.554688 450.089844 465.113281 C 453.53125 461.667969 453.53125 456.128906 450.089844 452.761719 C 447.171875 449.84375 442.605469 449.394531 439.238281 451.566406 L 277.367188 289.671875 L 276.765625 289.074219 L 192.203125 289.074219 C 191.304688 285.179688 187.863281 282.261719 183.671875 282.261719 C 178.882812 282.261719 174.914062 286.15625 174.914062 291.019531 C 174.914062 295.882812 178.804688 299.777344 183.671875 299.777344 C 187.863281 299.777344 191.304688 296.855469 192.203125 292.964844 L 275.195312 292.964844 L 436.46875 454.257812 C 434.375 457.628906 434.746094 462.191406 437.742188 465.113281 Z M 437.742188 465.113281 " fill-opacity="1" fill-rule="nonzero"/><path fill="#e6e7e8" d="M 250.125 229.496094 C 253.042969 226.578125 253.492188 222.011719 251.324219 218.644531 L 311.117188 158.839844 L 435.347656 158.839844 C 436.246094 162.730469 439.6875 165.652344 443.878906 165.652344 C 448.667969 165.652344 452.632812 161.757812 452.632812 156.894531 C 452.632812 152.105469 448.742188 148.136719 443.878906 148.136719 C 439.6875 148.136719 436.246094 151.054688 435.347656 154.949219 L 309.546875 154.949219 L 248.628906 215.875 C 245.261719 213.777344 240.769531 214.152344 237.777344 217.070312 C 234.335938 220.515625 234.335938 226.050781 237.777344 229.421875 C 241.21875 232.9375 246.757812 232.9375 250.125 229.496094 Z M 250.125 229.496094 " fill-opacity="1" fill-rule="nonzero"/><path fill="#bcbec0" d="M 100.453125 266.320312 C 104.644531 266.320312 108.085938 263.402344 108.984375 259.507812 L 311.640625 259.507812 L 344.269531 225.976562 L 527.46875 225.976562 C 528.367188 229.871094 531.8125 232.789062 536 232.789062 C 540.792969 232.789062 544.757812 228.898438 544.757812 224.03125 C 544.757812 219.167969 540.867188 215.273438 536 215.273438 C 531.8125 215.273438 528.367188 218.195312 527.46875 222.085938 L 342.625 222.085938 L 309.996094 255.617188 L 108.984375 255.617188 C 108.085938 251.726562 104.644531 248.804688 100.453125 248.804688 C 95.664062 248.804688 91.695312 252.699219 91.695312 257.5625 C 91.695312 262.429688 95.589844 266.320312 100.453125 266.320312 Z M 100.453125 266.320312 " fill-opacity="1" fill-rule="nonzero"/><path fill="#f1f2f2" d="M 435.347656 192.597656 C 436.246094 196.488281 439.6875 199.40625 443.878906 199.40625 C 448.667969 199.40625 452.632812 195.515625 452.632812 190.648438 C 452.632812 185.859375 448.742188 181.894531 443.878906 181.894531 C 439.6875 181.894531 436.246094 184.8125 435.347656 188.703125 L 309.921875 188.703125 L 283.128906 215.5 C 279.761719 213.402344 275.269531 213.777344 272.277344 216.695312 C 268.835938 220.140625 268.835938 225.679688 272.277344 229.046875 C 275.71875 232.488281 281.257812 232.488281 284.625 229.046875 C 287.542969 226.128906 287.992188 221.5625 285.824219 218.195312 L 311.492188 192.519531 L 435.347656 192.519531 Z M 435.347656 192.597656 " fill-opacity="1" fill-rule="nonzero"/><path fill="#d1d3d4" d="M 600.660156 199.40625 C 605.449219 199.40625 609.417969 195.515625 609.417969 190.648438 C 609.417969 185.859375 605.523438 181.894531 600.660156 181.894531 C 596.46875 181.894531 593.027344 184.8125 592.128906 188.703125 L 486.160156 188.703125 C 485.261719 184.8125 481.820312 181.894531 477.628906 181.894531 C 472.839844 181.894531 468.875 185.785156 468.875 190.648438 C 468.875 195.441406 472.765625 199.40625 477.628906 199.40625 C 481.820312 199.40625 485.261719 196.488281 486.160156 192.597656 L 592.128906 192.597656 C 593.027344 196.488281 596.542969 199.40625 600.660156 199.40625 Z M 600.660156 199.40625 " fill-opacity="1" fill-rule="nonzero"/><path fill="#bcbec0" d="M 511.082031 326.644531 L 539.667969 326.644531 L 573.945312 360.925781 L 657.011719 360.925781 C 657.910156 364.816406 661.351562 367.738281 665.542969 367.738281 C 670.332031 367.738281 674.300781 363.84375 674.300781 358.980469 C 674.300781 354.113281 670.40625 350.222656 665.542969 350.222656 C 661.351562 350.222656 657.910156 353.140625 657.011719 357.035156 L 575.515625 357.035156 L 541.238281 322.753906 L 511.082031 322.753906 C 510.183594 318.863281 506.742188 315.941406 502.550781 315.941406 C 497.761719 315.941406 493.792969 319.835938 493.792969 324.699219 C 493.792969 329.566406 497.683594 333.457031 502.550781 333.457031 C 506.742188 333.457031 510.183594 330.539062 511.082031 326.644531 Z M 511.082031 326.644531 " fill-opacity="1" fill-rule="nonzero"/><path fill="#f1f2f2" d="M 9.078125 400.746094 C 13.269531 400.746094 16.710938 397.824219 17.609375 393.933594 L 301.914062 393.933594 C 302.8125 397.824219 306.253906 400.746094 310.445312 400.746094 C 315.234375 400.746094 319.199219 396.851562 319.199219 391.988281 C 319.199219 387.195312 315.308594 383.230469 310.445312 383.230469 C 306.253906 383.230469 302.8125 386.148438 301.914062 390.042969 L 17.609375 390.042969 C 16.710938 386.148438 13.269531 383.230469 9.078125 383.230469 C 4.289062 383.230469 0.320312 387.121094 0.320312 391.988281 C 0.320312 396.851562 4.210938 400.746094 9.078125 400.746094 Z M 9.078125 400.746094 " fill-opacity="1" fill-rule="nonzero"/><path fill="#e6e7e8" d="M 50.3125 334.054688 C 54.503906 334.054688 57.945312 331.136719 58.84375 327.246094 L 97.160156 327.246094 L 130.835938 360.925781 L 268.160156 360.925781 C 269.058594 364.816406 272.5 367.738281 276.691406 367.738281 C 281.480469 367.738281 285.449219 363.84375 285.449219 358.980469 C 285.449219 354.113281 281.558594 350.222656 276.691406 350.222656 C 272.5 350.222656 269.058594 353.140625 268.160156 357.035156 L 132.332031 357.035156 L 98.65625 323.351562 L 58.84375 323.351562 C 57.945312 319.460938 54.503906 316.542969 50.3125 316.542969 C 45.523438 316.542969 41.554688 320.433594 41.554688 325.300781 C 41.554688 330.164062 45.449219 334.054688 50.3125 334.054688 Z M 50.3125 334.054688 " fill-opacity="1" fill-rule="nonzero"/><path fill="#e6e7e8" d="M 443.878906 349.847656 C 439.089844 349.847656 435.121094 353.742188 435.121094 358.605469 C 435.121094 363.472656 439.011719 367.363281 443.878906 367.363281 C 448.070312 367.363281 451.511719 364.445312 452.410156 360.550781 L 501.726562 360.550781 L 535.101562 393.933594 L 592.351562 393.933594 C 593.25 397.824219 596.695312 400.746094 600.886719 400.746094 C 605.675781 400.746094 609.640625 396.851562 609.640625 391.988281 C 609.640625 387.195312 605.75 383.230469 600.886719 383.230469 C 596.695312 383.230469 593.25 386.148438 592.351562 390.042969 L 536.675781 390.042969 L 503.296875 356.660156 L 452.335938 356.660156 C 451.511719 352.769531 448.070312 349.847656 443.878906 349.847656 Z M 443.878906 349.847656 " fill-opacity="1" fill-rule="nonzero"/><g fill="#ffffff" fill-opacity="1"><g transform="translate(0.0169574, 418.451599)"><g><path d="M 57.53125 3.53125 C 91.703125 3.53125 110.21875 -17.203125 110.21875 -45.859375 L 110.21875 -156.96875 L 80.6875 -156.96875 L 80.6875 -46.515625 C 80.6875 -30.859375 71.640625 -22.703125 57.3125 -22.703125 C 43.203125 -22.703125 34.171875 -30.859375 34.171875 -46.515625 L 34.171875 -56 L 5.734375 -56 L 5.734375 -45.859375 C 5.734375 -15.65625 24.90625 3.53125 57.53125 3.53125 Z M 57.53125 3.53125 "/></g></g></g><g fill="#ffffff" fill-opacity="1"><g transform="translate(121.045208, 418.451599)"><g><path d="M 64.15625 2.640625 C 98.765625 2.640625 121.90625 -20.71875 121.90625 -56.875 C 121.90625 -93.03125 98.765625 -116.40625 64.15625 -116.40625 C 29.546875 -116.40625 6.171875 -93.03125 6.171875 -56.875 C 6.171875 -20.71875 29.546875 2.640625 64.15625 2.640625 Z M 64.15625 -20.28125 C 46.078125 -20.28125 34.609375 -32.84375 34.609375 -56.875 C 34.609375 -80.90625 46.078125 -93.46875 64.15625 -93.46875 C 82.015625 -93.46875 93.6875 -80.90625 93.6875 -56.875 C 93.6875 -32.84375 82.015625 -20.28125 64.15625 -20.28125 Z M 64.15625 -20.28125 "/></g></g></g><g fill="#ffffff" fill-opacity="1"><g transform="translate(249.12792, 418.451599)"><g><path d="M 141.09375 -116.40625 C 125.21875 -116.40625 113.3125 -107.359375 105.8125 -95.234375 C 100.078125 -108.25 87.953125 -116.40625 70.546875 -116.40625 C 55.546875 -116.40625 44.96875 -108.46875 38.140625 -97.4375 L 38.140625 -113.75 L 11.25 -113.75 L 11.25 0 L 39.015625 0 L 39.015625 -62.609375 C 39.015625 -84 50.703125 -92.375 62.390625 -92.375 C 75.609375 -92.375 82.234375 -85.3125 82.234375 -70.765625 L 82.234375 0 L 109.78125 0 L 109.78125 -62.609375 C 109.78125 -84 121.25 -92.375 133.375 -92.375 C 146.59375 -92.375 153 -85.3125 153 -70.765625 L 153 0 L 180.765625 0 L 180.765625 -75.171875 C 180.765625 -100.3125 166.4375 -116.40625 141.09375 -116.40625 Z M 141.09375 -116.40625 "/></g></g></g><g fill="#ffffff" fill-opacity="1"><g transform="translate(441.141789, 418.451599)"><g><path d="M 62.828125 2.640625 C 90.171875 2.640625 109.78125 -12.34375 115.734375 -35.265625 L 88.84375 -35.265625 C 84.875 -25.125 76.28125 -18.953125 63.046875 -18.953125 C 46.953125 -18.953125 35.71875 -28.21875 33.515625 -48.28125 L 118.609375 -48.28125 L 118.609375 -54.890625 C 118.609375 -91.046875 97.21875 -116.40625 62.390625 -116.40625 C 28.65625 -116.40625 6.171875 -92.59375 6.171875 -56.875 C 6.171875 -20.5 29.3125 2.640625 62.828125 2.640625 Z M 33.734375 -67.671875 C 36.375 -86.203125 47.390625 -94.796875 62.171875 -94.796875 C 78.703125 -94.796875 88.625 -83.765625 90.828125 -67.671875 Z M 33.734375 -67.671875 "/></g></g></g><g fill="#ffffff" fill-opacity="1"><g transform="translate(566.358622, 418.451599)"><g><path d="M 73.625 -116.40625 C 57.53125 -116.40625 45.40625 -108.25 38.140625 -97.4375 L 38.140625 -113.75 L 11.25 -113.75 L 11.25 0 L 39.015625 0 L 39.015625 -63.703125 C 39.015625 -84 52.25 -92.375 64.375 -92.375 C 78.484375 -92.375 85.75 -85.3125 85.75 -70.765625 L 85.75 0 L 113.53125 0 L 113.53125 -75.390625 C 113.53125 -102.515625 97.4375 -116.40625 73.625 -116.40625 Z M 73.625 -116.40625 "/></g></g></g><g fill="#ffffff" fill-opacity="1"><g transform="translate(691.134521, 418.451599)"><g><path d="M 113.53125 0 C 110.453125 -4.40625 108.90625 -13.453125 108.90625 -21.609375 L 108.90625 -82.234375 C 108.90625 -102.734375 95.453125 -116.40625 61.5 -116.40625 C 26.015625 -116.40625 11.90625 -101.625 10.359375 -77.59375 L 37.703125 -77.59375 C 38.796875 -91.484375 45.40625 -95.671875 61.28125 -95.671875 C 77.375 -95.671875 82.015625 -90.390625 82.015625 -81.5625 C 82.015625 -73.1875 76.5 -69.890625 65.921875 -68.5625 L 48.71875 -67.015625 C 16.53125 -63.9375 5.078125 -50.484375 5.078125 -31.53125 C 5.078125 -9.484375 21.828125 2.640625 46.078125 2.640625 C 62.828125 2.640625 75.171875 -3.3125 82.671875 -13.890625 C 83.109375 -8.375 84 -3.09375 85.75 0 Z M 52.6875 -17.203125 C 39.90625 -17.203125 33.515625 -23.140625 33.515625 -32.625 C 33.515625 -41.671875 38.578125 -47.171875 54.015625 -48.9375 L 69 -50.703125 C 74.953125 -51.359375 79.140625 -52.6875 82.015625 -55.328125 L 82.015625 -44.96875 C 82.015625 -25.125 67.453125 -17.203125 52.6875 -17.203125 Z M 52.6875 -17.203125 "/></g></g></g><g fill="#ffffff" fill-opacity="1"><g transform="translate(375.263655, 550.451476)"><g><path d="M 60.046875 -41.390625 L 88.03125 -41.390625 C 86.984375 -25.734375 73.890625 -15.34375 58.09375 -15.34375 C 37.921875 -15.34375 25.4375 -29.953125 25.4375 -53.578125 C 25.4375 -77.203125 37.625 -91.796875 57.328125 -91.796875 C 72.078125 -91.796875 82.765625 -83.96875 85.78125 -71.484375 L 106.6875 -71.484375 C 103.078125 -94.65625 84.265625 -109.546875 57.1875 -109.546875 C 24.53125 -109.546875 4.21875 -87.28125 4.21875 -53.578125 C 4.21875 -19.859375 24.53125 2.40625 55.375 2.40625 C 70.421875 2.40625 82.765625 -3.46875 90.296875 -14.140625 L 93.15625 0 L 107.890625 0 L 107.890625 -57.78125 L 60.046875 -57.78125 Z M 60.046875 -41.390625 "/></g></g></g><g fill="#ffffff" fill-opacity="1"><g transform="translate(490.372216, 550.451476)"><g><path d="M 49.203125 -78.859375 C 37.171875 -78.859375 29.796875 -72.53125 26.03125 -63.8125 L 26.03125 -77.65625 L 7.671875 -77.65625 L 7.671875 0 L 26.640625 0 L 26.640625 -39.421875 C 26.640625 -54.171875 35.0625 -61.09375 49.0625 -61.09375 L 53.875 -61.09375 L 53.875 -78.546875 C 52.21875 -78.859375 50.859375 -78.859375 49.203125 -78.859375 Z M 49.203125 -78.859375 "/></g></g></g><g fill="#ffffff" fill-opacity="1"><g transform="translate(547.700795, 550.451476)"><g><path d="M 43.796875 1.8125 C 67.421875 1.8125 83.21875 -14.140625 83.21875 -38.828125 C 83.21875 -63.5 67.421875 -79.453125 43.796875 -79.453125 C 20.171875 -79.453125 4.21875 -63.5 4.21875 -38.828125 C 4.21875 -14.140625 20.171875 1.8125 43.796875 1.8125 Z M 43.796875 -13.84375 C 31.453125 -13.84375 23.625 -22.421875 23.625 -38.828125 C 23.625 -55.234375 31.453125 -63.8125 43.796875 -63.8125 C 55.984375 -63.8125 63.953125 -55.234375 63.953125 -38.828125 C 63.953125 -22.421875 55.984375 -13.84375 43.796875 -13.84375 Z M 43.796875 -13.84375 "/></g></g></g><g fill="#ffffff" fill-opacity="1"><g transform="translate(635.123123, 550.451476)"><g><path d="M 58.53125 -34.15625 C 58.53125 -20.3125 49.515625 -14.59375 41.234375 -14.59375 C 31.453125 -14.59375 26.640625 -19.40625 26.640625 -29.34375 L 26.640625 -77.65625 L 7.671875 -77.65625 L 7.671875 -26.1875 C 7.671875 -7.671875 18.65625 1.8125 34.765625 1.8125 C 45.890625 1.8125 54.03125 -3.765625 59.140625 -11.28125 L 59.140625 0 L 77.5 0 L 77.5 -77.65625 L 58.53125 -77.65625 Z M 58.53125 -34.15625 "/></g></g></g><g fill="#ffffff" fill-opacity="1"><g transform="translate(720.288402, 550.451476)"><g><path d="M 50.71875 -79.453125 C 39.421875 -79.453125 31.15625 -74.640625 25.890625 -66.515625 L 25.890625 -77.65625 L 7.671875 -77.65625 L 7.671875 29.5 L 26.640625 29.5 L 26.640625 -10.078125 C 31.90625 -2.5625 39.875 1.8125 50.71875 1.8125 C 72.078125 1.8125 85.46875 -14.140625 85.46875 -38.828125 C 85.46875 -63.5 72.078125 -79.453125 50.71875 -79.453125 Z M 46.203125 -13.84375 C 33.859375 -13.84375 26.1875 -22.421875 26.1875 -38.828125 C 26.1875 -55.234375 33.859375 -63.8125 46.203125 -63.8125 C 58.53125 -63.8125 66.21875 -55.828125 66.21875 -39.421875 C 66.21875 -23.03125 58.53125 -13.84375 46.203125 -13.84375 Z M 46.203125 -13.84375 "/></g></g></g></svg>