<svg xmlns="http://www.w3.org/2000/svg" xmlns:xlink="http://www.w3.org/1999/xlink" width="1080" zoomAndPan="magnify" viewBox="0 0 810 809.999993" height="1080" preserveAspectRatio="xMidYMid meet" version="1.0"><defs><g/></defs><g fill="#ffffff" fill-opacity="1"><g transform="translate(0.0169574, 418.451599)"><g><path d="M 57.53125 3.53125 C 91.703125 3.53125 110.21875 -17.203125 110.21875 -45.859375 L 110.21875 -156.96875 L 80.6875 -156.96875 L 80.6875 -46.515625 C 80.6875 -30.859375 71.640625 -22.703125 57.3125 -22.703125 C 43.203125 -22.703125 34.171875 -30.859375 34.171875 -46.515625 L 34.171875 -56 L 5.734375 -56 L 5.734375 -45.859375 C 5.734375 -15.65625 24.90625 3.53125 57.53125 3.53125 Z M 57.53125 3.53125 "/></g></g></g><g fill="#ffffff" fill-opacity="1"><g transform="translate(121.045208, 418.451599)"><g><path d="M 64.15625 2.640625 C 98.765625 2.640625 121.90625 -20.71875 121.90625 -56.875 C 121.90625 -93.03125 98.765625 -116.40625 64.15625 -116.40625 C 29.546875 -116.40625 6.171875 -93.03125 6.171875 -56.875 C 6.171875 -20.71875 29.546875 2.640625 64.15625 2.640625 Z M 64.15625 -20.28125 C 46.078125 -20.28125 34.609375 -32.84375 34.609375 -56.875 C 34.609375 -80.90625 46.078125 -93.46875 64.15625 -93.46875 C 82.015625 -93.46875 93.6875 -80.90625 93.6875 -56.875 C 93.6875 -32.84375 82.015625 -20.28125 64.15625 -20.28125 Z M 64.15625 -20.28125 "/></g></g></g><g fill="#ffffff" fill-opacity="1"><g transform="translate(249.12792, 418.451599)"><g><path d="M 141.09375 -116.40625 C 125.21875 -116.40625 113.3125 -107.359375 105.8125 -95.234375 C 100.078125 -108.25 87.953125 -116.40625 70.546875 -116.40625 C 55.546875 -116.40625 44.96875 -108.46875 38.140625 -97.4375 L 38.140625 -113.75 L 11.25 -113.75 L 11.25 0 L 39.015625 0 L 39.015625 -62.609375 C 39.015625 -84 50.703125 -92.375 62.390625 -92.375 C 75.609375 -92.375 82.234375 -85.3125 82.234375 -70.765625 L 82.234375 0 L 109.78125 0 L 109.78125 -62.609375 C 109.78125 -84 121.25 -92.375 133.375 -92.375 C 146.59375 -92.375 153 -85.3125 153 -70.765625 L 153 0 L 180.765625 0 L 180.765625 -75.171875 C 180.765625 -100.3125 166.4375 -116.40625 141.09375 -116.40625 Z M 141.09375 -116.40625 "/></g></g></g><g fill="#ffffff" fill-opacity="1"><g transform="translate(441.141789, 418.451599)"><g><path d="M 62.828125 2.640625 C 90.171875 2.640625 109.78125 -12.34375 115.734375 -35.265625 L 88.84375 -35.265625 C 84.875 -25.125 76.28125 -18.953125 63.046875 -18.953125 C 46.953125 -18.953125 35.71875 -28.21875 33.515625 -48.28125 L 118.609375 -48.28125 L 118.609375 -54.890625 C 118.609375 -91.046875 97.21875 -116.40625 62.390625 -116.40625 C 28.65625 -116.40625 6.171875 -92.59375 6.171875 -56.875 C 6.171875 -20.5 29.3125 2.640625 62.828125 2.640625 Z M 33.734375 -67.671875 C 36.375 -86.203125 47.390625 -94.796875 62.171875 -94.796875 C 78.703125 -94.796875 88.625 -83.765625 90.828125 -67.671875 Z M 33.734375 -67.671875 "/></g></g></g><g fill="#ffffff" fill-opacity="1"><g transform="translate(566.358622, 418.451599)"><g><path d="M 73.625 -116.40625 C 57.53125 -116.40625 45.40625 -108.25 38.140625 -97.4375 L 38.140625 -113.75 L 11.25 -113.75 L 11.25 0 L 39.015625 0 L 39.015625 -63.703125 C 39.015625 -84 52.25 -92.375 64.375 -92.375 C 78.484375 -92.375 85.75 -85.3125 85.75 -70.765625 L 85.75 0 L 113.53125 0 L 113.53125 -75.390625 C 113.53125 -102.515625 97.4375 -116.40625 73.625 -116.40625 Z M 73.625 -116.40625 "/></g></g></g><g fill="#ffffff" fill-opacity="1"><g transform="translate(691.134521, 418.451599)"><g><path d="M 113.53125 0 C 110.453125 -4.40625 108.90625 -13.453125 108.90625 -21.609375 L 108.90625 -82.234375 C 108.90625 -102.734375 95.453125 -116.40625 61.5 -116.40625 C 26.015625 -116.40625 11.90625 -101.625 10.359375 -77.59375 L 37.703125 -77.59375 C 38.796875 -91.484375 45.40625 -95.671875 61.28125 -95.671875 C 77.375 -95.671875 82.015625 -90.390625 82.015625 -81.5625 C 82.015625 -73.1875 76.5 -69.890625 65.921875 -68.5625 L 48.71875 -67.015625 C 16.53125 -63.9375 5.078125 -50.484375 5.078125 -31.53125 C 5.078125 -9.484375 21.828125 2.640625 46.078125 2.640625 C 62.828125 2.640625 75.171875 -3.3125 82.671875 -13.890625 C 83.109375 -8.375 84 -3.09375 85.75 0 Z M 52.6875 -17.203125 C 39.90625 -17.203125 33.515625 -23.140625 33.515625 -32.625 C 33.515625 -41.671875 38.578125 -47.171875 54.015625 -48.9375 L 69 -50.703125 C 74.953125 -51.359375 79.140625 -52.6875 82.015625 -55.328125 L 82.015625 -44.96875 C 82.015625 -25.125 67.453125 -17.203125 52.6875 -17.203125 Z M 52.6875 -17.203125 "/></g></g></g><g fill="#ffffff" fill-opacity="1"><g transform="translate(375.263655, 550.451476)"><g><path d="M 60.046875 -41.390625 L 88.03125 -41.390625 C 86.984375 -25.734375 73.890625 -15.34375 58.09375 -15.34375 C 37.921875 -15.34375 25.4375 -29.953125 25.4375 -53.578125 C 25.4375 -77.203125 37.625 -91.796875 57.328125 -91.796875 C 72.078125 -91.796875 82.765625 -83.96875 85.78125 -71.484375 L 106.6875 -71.484375 C 103.078125 -94.65625 84.265625 -109.546875 57.1875 -109.546875 C 24.53125 -109.546875 4.21875 -87.28125 4.21875 -53.578125 C 4.21875 -19.859375 24.53125 2.40625 55.375 2.40625 C 70.421875 2.40625 82.765625 -3.46875 90.296875 -14.140625 L 93.15625 0 L 107.890625 0 L 107.890625 -57.78125 L 60.046875 -57.78125 Z M 60.046875 -41.390625 "/></g></g></g><g fill="#ffffff" fill-opacity="1"><g transform="translate(490.372216, 550.451476)"><g><path d="M 49.203125 -78.859375 C 37.171875 -78.859375 29.796875 -72.53125 26.03125 -63.8125 L 26.03125 -77.65625 L 7.671875 -77.65625 L 7.671875 0 L 26.640625 0 L 26.640625 -39.421875 C 26.640625 -54.171875 35.0625 -61.09375 49.0625 -61.09375 L 53.875 -61.09375 L 53.875 -78.546875 C 52.21875 -78.859375 50.859375 -78.859375 49.203125 -78.859375 Z M 49.203125 -78.859375 "/></g></g></g><g fill="#ffffff" fill-opacity="1"><g transform="translate(547.700795, 550.451476)"><g><path d="M 43.796875 1.8125 C 67.421875 1.8125 83.21875 -14.140625 83.21875 -38.828125 C 83.21875 -63.5 67.421875 -79.453125 43.796875 -79.453125 C 20.171875 -79.453125 4.21875 -63.5 4.21875 -38.828125 C 4.21875 -14.140625 20.171875 1.8125 43.796875 1.8125 Z M 43.796875 -13.84375 C 31.453125 -13.84375 23.625 -22.421875 23.625 -38.828125 C 23.625 -55.234375 31.453125 -63.8125 43.796875 -63.8125 C 55.984375 -63.8125 63.953125 -55.234375 63.953125 -38.828125 C 63.953125 -22.421875 55.984375 -13.84375 43.796875 -13.84375 Z M 43.796875 -13.84375 "/></g></g></g><g fill="#ffffff" fill-opacity="1"><g transform="translate(635.123123, 550.451476)"><g><path d="M 58.53125 -34.15625 C 58.53125 -20.3125 49.515625 -14.59375 41.234375 -14.59375 C 31.453125 -14.59375 26.640625 -19.40625 26.640625 -29.34375 L 26.640625 -77.65625 L 7.671875 -77.65625 L 7.671875 -26.1875 C 7.671875 -7.671875 18.65625 1.8125 34.765625 1.8125 C 45.890625 1.8125 54.03125 -3.765625 59.140625 -11.28125 L 59.140625 0 L 77.5 0 L 77.5 -77.65625 L 58.53125 -77.65625 Z M 58.53125 -34.15625 "/></g></g></g><g fill="#ffffff" fill-opacity="1"><g transform="translate(720.288402, 550.451476)"><g><path d="M 50.71875 -79.453125 C 39.421875 -79.453125 31.15625 -74.640625 25.890625 -66.515625 L 25.890625 -77.65625 L 7.671875 -77.65625 L 7.671875 29.5 L 26.640625 29.5 L 26.640625 -10.078125 C 31.90625 -2.5625 39.875 1.8125 50.71875 1.8125 C 72.078125 1.8125 85.46875 -14.140625 85.46875 -38.828125 C 85.46875 -63.5 72.078125 -79.453125 50.71875 -79.453125 Z M 46.203125 -13.84375 C 33.859375 -13.84375 26.1875 -22.421875 26.1875 -38.828125 C 26.1875 -55.234375 33.859375 -63.8125 46.203125 -63.8125 C 58.53125 -63.8125 66.21875 -55.828125 66.21875 -39.421875 C 66.21875 -23.03125 58.53125 -13.84375 46.203125 -13.84375 Z M 46.203125 -13.84375 "/></g></g></g></svg>